<?xml version="1.0" encoding="utf-8"?>
<!-- Generator: Adobe Illustrator 23.0.6, SVG Export Plug-In . SVG Version: 6.00 Build 0)  -->
<svg version="1.2" baseProfile="tiny" id="Layer_1" xmlns="http://www.w3.org/2000/svg" xmlns:xlink="http://www.w3.org/1999/xlink"
	 x="0px" y="0px" viewBox="0 0 32 32" xml:space="preserve">
<path id="Vector" fill="none" stroke="#D2D2D2" stroke-width="2.7" stroke-linecap="round" stroke-linejoin="round" d="M27.8,6.1
	c-0.7-0.7-1.5-1.2-2.4-1.6C24.5,4.2,23.6,4,22.6,4c-1,0-1.9,0.2-2.8,0.6c-0.9,0.4-1.7,0.9-2.4,1.6L16,7.6l-1.4-1.4
	C13.2,4.8,11.3,4,9.4,4C7.5,4,5.6,4.8,4.2,6.1s-2.1,3.2-2.1,5.2c0,1.9,0.8,3.8,2.1,5.2l1.4,1.4L16,28.3l10.4-10.4l1.4-1.4
	c0.7-0.7,1.2-1.5,1.6-2.4c0.4-0.9,0.6-1.8,0.6-2.8s-0.2-1.9-0.6-2.8C29,7.6,28.5,6.8,27.8,6.1z"/>
</svg>
